<?xml version="1.0" encoding="UTF-8"?>
<svg version="1.1" xmlns="http://www.w3.org/2000/svg" width="192" height="192">
<path d="M0 0 C2.76880409 1.59895157 2.76880409 1.59895157 5.2265625 0.375 C6.10054688 0.00375 6.97453125 -0.3675 7.875 -0.75 C16.51868896 -2.3739658 24.30950419 -2.03509161 32 2.4375 C42.7855171 9.82044325 48.46435555 19.67054767 51.3828125 32.328125 C51.85194554 35.11313702 51.9856383 37.74423774 52.0625 40.5625 C52.28930109 43.53453928 52.50010452 44.82914378 54.5 47.07421875 C55.89803382 48.21012123 57.31289164 49.32556922 58.7421875 50.421875 C66.34916943 56.94214523 69.33771877 67.18071202 70.19140625 76.82421875 C70.51612367 87.01615571 68.66768436 96.20434799 63.875 105.25 C63.215 105.25 62.555 105.25 61.875 105.25 C61.66875 105.971875 61.4625 106.69375 61.25 107.4375 C58.18202421 113.71290502 51.10570005 117.53041674 44.875 120.25 C41.51103285 121.01145817 38.23497941 121.20521753 34.79296875 121.30078125 C33.85753738 121.33165329 32.92210602 121.36252533 31.95832825 121.39433289 C29.9913334 121.44561942 28.02392034 121.48267484 26.05639648 121.50610352 C23.07332314 121.56229612 20.1093131 121.7302847 17.13085938 121.90039062 C3.6008822 122.30266115 3.6008822 122.30266115 -1.25775146 118.64398193 C-5.16756863 114.63040485 -11.125 108.15981557 -11.125 102.25 C-11.785 102.25 -12.445 102.25 -13.125 102.25 C-14.8515625 100.38671875 -14.8515625 100.38671875 -16.75 97.9375 C-17.38164063 97.13699219 -18.01328125 96.33648437 -18.6640625 95.51171875 C-20.125 93.25 -20.125 93.25 -20.125 90.25 C-21.61 89.755 -21.61 89.755 -23.125 89.25 C-24.77969197 87.25808238 -26.30839146 85.28653505 -27.8125 83.1875 C-28.22822266 82.61966797 -28.64394531 82.05183594 -29.07226562 81.46679688 C-30.09640082 80.06596827 -31.11157535 78.65859652 -32.125 77.25 C-30.81247786 74.50342589 -29.37206499 71.99276346 -27.625 69.5 C-27.2021875 68.88640625 -26.779375 68.2728125 -26.34375 67.640625 C-25.9415625 67.18171875 -25.539375 66.7228125 -25.125 66.25 C-24.465 66.25 -23.805 66.25 -23.125 66.25 C-22.87621094 65.693125 -22.62742187 65.13625 -22.37109375 64.5625 C-20.90846393 61.8481525 -19.14008941 59.63528613 -17.1875 57.25 C-14.25476259 53.65998671 -14.25476259 53.65998671 -11.49609375 49.9375 C-11.04363281 49.380625 -10.59117188 48.82375 -10.125 48.25 C-9.465 48.25 -8.805 48.25 -8.125 48.25 C-7.795 47.26 -7.465 46.27 -7.125 45.25 C-1.515 45.25 4.095 45.25 9.875 45.25 C9.545 46.24 9.215 47.23 8.875 48.25 C8.215 48.25 7.555 48.25 6.875 48.25 C6.59720703 48.8387793 6.31941406 49.42755859 6.03320312 50.03417969 C4.22081635 53.50155371 1.78746873 56.43298549 -0.625 59.5 C-1.12386719 60.1496875 -1.62273437 60.799375 -2.13671875 61.46875 C-3.41684193 63.10236564 -4.76605599 64.68134241 -6.125 66.25 C-6.785 66.25 -7.445 66.25 -8.125 66.25 C-8.62 67.735 -8.62 67.735 -9.125 69.25 C-9.785 69.25 -10.445 69.25 -11.125 69.25 C-11.62 71.23 -11.62 71.23 -12.125 73.25 C-12.785 73.25 -13.445 73.25 -14.125 73.25 C-13.56018386 77.20371299 -12.40503407 79.96675094 -10.125 83.25 C-9.465 83.58 -8.805 83.91 -8.125 84.25 C-8.125 85.24 -8.125 86.23 -8.125 87.25 C-6.64 87.745 -6.64 87.745 -5.125 88.25 C-3.1171875 90.6484375 -3.1171875 90.6484375 -1 93.625 C-0.29617187 94.60210937 0.40765625 95.57921875 1.1328125 96.5859375 C2.875 99.25 2.875 99.25 3.875 102.25 C4.535 102.25 5.195 102.25 5.875 102.25 C6.205 103.57 6.535 104.89 6.875 106.25 C11.41042964 106.18056646 15.9449856 106.09234047 20.47973633 105.98754883 C22.01869926 105.95453079 23.55777656 105.92642878 25.09692383 105.90356445 C37.30652874 105.80949414 37.30652874 105.80949414 48.875 102.25 C49.205 101.26 49.535 100.27 49.875 99.25 C50.535 99.25 51.195 99.25 51.875 99.25 C52.143125 98.569375 52.41125 97.88875 52.6875 97.1875 C53.875 94.25 53.875 94.25 55.5 91.25 C58.0328677 85.41283282 58.07829533 77.44956689 55.85546875 71.5390625 C55.37013672 70.40597656 55.37013672 70.40597656 54.875 69.25 C54.875 68.26 54.875 67.27 54.875 66.25 C54.215 66.25 53.555 66.25 52.875 66.25 C51.65475006 64.77285534 50.43746266 63.29148239 49.2890625 61.7578125 C46.88213774 59.19131261 44.61088007 58.33535163 41.12597656 57.93115234 C40.09956055 57.89973145 39.07314453 57.86831055 38.015625 57.8359375 C36.90058594 57.79726562 35.78554687 57.75859375 34.63671875 57.71875 C33.47785156 57.6878125 32.31898438 57.656875 31.125 57.625 C29.95066406 57.58632812 28.77632813 57.54765625 27.56640625 57.5078125 C24.66942732 57.4136018 21.77245374 57.32798398 18.875 57.25 C19.70984117 53.15400958 21.46724125 51.14448427 24.3125 48.0625 C25.11558594 47.18207031 25.91867188 46.30164062 26.74609375 45.39453125 C28.99165467 43.13248915 29.8796017 42.2949187 33.0390625 42.15234375 C34.25722656 42.16974609 34.25722656 42.16974609 35.5 42.1875 C36.72589844 42.20103516 36.72589844 42.20103516 37.9765625 42.21484375 C38.60304687 42.22644531 39.22953125 42.23804688 39.875 42.25 C38.77486786 36.5422556 37.31078094 31.52752536 34.875 26.25 C34.20223284 24.5857865 33.53293165 22.92013418 32.875 21.25 C32.215 21.25 31.555 21.25 30.875 21.25 C30.33875 20.651875 29.8025 20.05375 29.25 19.4375 C25.54488625 16.02489523 21.60414797 14.32732586 16.53125 14.18359375 C11.88555012 14.56299257 8.76291871 15.5839986 4.875 18.25 C2.75 19.0625 2.75 19.0625 0.875 19.25 C-0.115 18.59 -1.105 17.93 -2.125 17.25 C-2.125 16.59 -2.125 15.93 -2.125 15.25 C-2.70636719 15.11722656 -3.28773437 14.98445313 -3.88671875 14.84765625 C-6.01056936 14.28055478 -7.91497622 13.54017296 -9.9375 12.6875 C-15.84436787 10.4860474 -20.19457751 10.67210668 -25.9375 13.25 C-26.68644531 13.62125 -27.43539062 13.9925 -28.20703125 14.375 C-30.125 15.25 -30.125 15.25 -32.125 15.25 C-32.125 15.91 -32.125 16.57 -32.125 17.25 C-32.82625 17.86875 -33.5275 18.4875 -34.25 19.125 C-40.49565695 25.13867541 -43.64468861 33.76449873 -44.125 42.25 C-44.455 42.58 -44.785 42.91 -45.125 43.25 C-45.73730469 43.23839844 -46.34960938 43.22679687 -46.98046875 43.21484375 C-49.64259133 43.18362958 -51.60795916 43.35045353 -54.125 44.25 C-55.89767433 46.62380399 -57.11219558 49.09744232 -58.45703125 51.734375 C-61.30245873 56.0258394 -65.48019651 57.41047386 -70.125 59.25 C-73.39127304 60.58478576 -73.39127304 60.58478576 -75.1875 63.5 C-75.496875 64.4075 -75.80625 65.315 -76.125 66.25 C-76.6303125 67.13429688 -77.135625 68.01859375 -77.65625 68.9296875 C-79.34721006 72.75233657 -79.62272933 76.01969144 -79.5625 80.125 C-79.55637695 80.83172852 -79.55025391 81.53845703 -79.54394531 82.26660156 C-79.3338545 89.27070606 -77.72568848 93.50482883 -72.875 98.625 C-72.2975 99.16125 -71.72 99.6975 -71.125 100.25 C-71.125 100.91 -71.125 101.57 -71.125 102.25 C-64.73741275 104.76268526 -59.11737085 105.71032104 -52.27734375 105.76171875 C-50.93138878 105.78864555 -50.93138878 105.78864555 -49.5582428 105.81611633 C-46.72637463 105.8697733 -43.89467058 105.90397034 -41.0625 105.9375 C-39.12823258 105.97071257 -37.1939867 106.0052058 -35.25976562 106.04101562 C-30.54829643 106.12547347 -25.83687211 106.19249553 -21.125 106.25 C-20.465 107.9 -19.805 109.55 -19.125 111.25 C-18.465 111.25 -17.805 111.25 -17.125 111.25 C-17.125 112.24 -17.125 113.23 -17.125 114.25 C-16.465 114.25 -15.805 114.25 -15.125 114.25 C-13.125 117.25 -13.125 117.25 -13.125 120.25 C-20.59533593 120.42868377 -28.06511345 120.55057186 -35.53710938 120.63452148 C-38.07442823 120.66954681 -40.61160763 120.71718306 -43.1484375 120.77807617 C-70.50893732 121.41799352 -70.50893732 121.41799352 -79.125 113.25 C-87.95419034 104.44530117 -91.78802155 92.69174214 -92.27734375 80.43359375 C-92.2266914 76.23879245 -91.52994421 72.36942103 -90.5 68.3125 C-90.3239624 67.61664795 -90.1479248 66.9207959 -89.96655273 66.20385742 C-87.38436223 56.74905063 -82.01411526 50.0526452 -74.3125 44.0625 C-68.41003253 40.70619497 -62.83359065 39.97047539 -56.125 40.25 C-56.11082031 39.69054688 -56.09664062 39.13109375 -56.08203125 38.5546875 C-55.37419733 26.65542537 -51.28538331 15.97631594 -43.125 7.25 C-42.43535156 6.51007812 -41.74570313 5.77015625 -41.03515625 5.0078125 C-39.125 3.25 -39.125 3.25 -37.125 3.25 C-37.125 2.59 -37.125 1.93 -37.125 1.25 C-35.89993102 0.59642722 -34.66970484 -0.04748233 -33.4375 -0.6875 C-32.75300781 -1.04714844 -32.06851563 -1.40679687 -31.36328125 -1.77734375 C-21.81168996 -5.92803525 -8.98485463 -5.03151859 0 0 Z " fill="#519DBC" transform="translate(107.125,11.75)"/>
<path d="M0 0 C-2.59294566 11.11262427 -2.59294566 11.11262427 -6.2421875 13.4140625 C-7.11101563 13.81367187 -7.97984375 14.21328125 -8.875 14.625 C-9.73867188 15.02976562 -10.60234375 15.43453125 -11.4921875 15.8515625 C-13.07636866 16.57702864 -14.66328354 17.29658086 -16.25390625 18.0078125 C-18.81794344 19.46478218 -19.06326722 21.25225051 -20 24 C-20.5053125 24.88429688 -21.010625 25.76859375 -21.53125 26.6796875 C-23.22221006 30.50233657 -23.49772933 33.76969144 -23.4375 37.875 C-23.43137695 38.58172852 -23.42525391 39.28845703 -23.41894531 40.01660156 C-23.2088545 47.02070606 -21.60068848 51.25482883 -16.75 56.375 C-16.1725 56.91125 -15.595 57.4475 -15 58 C-15 58.66 -15 59.32 -15 60 C-8.61241275 62.51268526 -2.99237085 63.46032104 3.84765625 63.51171875 C4.74495956 63.52966995 5.64226288 63.54762115 6.5667572 63.56611633 C9.39862537 63.6197733 12.23032942 63.65397034 15.0625 63.6875 C16.99676742 63.72071257 18.9310133 63.7552058 20.86523438 63.79101562 C25.57670357 63.87547347 30.28812789 63.94249553 35 64 C35.66 65.65 36.32 67.3 37 69 C37.66 69 38.32 69 39 69 C39 69.99 39 70.98 39 72 C39.66 72 40.32 72 41 72 C43 75 43 75 43 78 C35.52966407 78.17868377 28.05988655 78.30057186 20.58789062 78.38452148 C18.05057177 78.41954681 15.51339237 78.46718306 12.9765625 78.52807617 C-14.38393732 79.16799352 -14.38393732 79.16799352 -23 71 C-31.82919034 62.19530117 -35.66302155 50.44174214 -36.15234375 38.18359375 C-36.1016914 33.98879245 -35.40494421 30.11942103 -34.375 26.0625 C-34.1989624 25.36664795 -34.0229248 24.6707959 -33.84155273 23.95385742 C-32.26106525 18.16683133 -29.90933953 13.59143783 -26 9 C-25.195625 8.05125 -24.39125 7.1025 -23.5625 6.125 C-16.45164256 0.2281914 -8.78262442 -0.17220832 0 0 Z " fill="#D2C8A5" transform="translate(51,54)"/>
<path d="M0 0 C2.31 0 4.62 0 7 0 C8.98 3.63 10.96 7.26 13 11 C13.66 11 14.32 11 15 11 C16.98 7.37 18.96 3.74 21 0 C23.31 0 25.62 0 28 0 C28 10.23 28 20.46 28 31 C25.69 31 23.38 31 21 31 C20.505 24.565 20.505 24.565 20 18 C19.01 19.98 18.02 21.96 17 24 C15.02 24 13.04 24 11 24 C10.01 22.02 9.02 20.04 8 18 C7.67 22.29 7.34 26.58 7 31 C4.69 31 2.38 31 0 31 C0 20.77 0 10.54 0 0 Z " fill="#D5D4D5" transform="translate(76,153)"/>
<path d="M0 0 C2.72851023 1.2005445 5.24915992 2.69938206 7.75 4.3125 C8.36359375 4.70050781 8.9771875 5.08851562 9.609375 5.48828125 C11 7 11 7 11.4140625 9.2734375 C10.87318921 12.83503708 9.47049725 15.22788317 7.625 18.3125 C6.68527344 19.91544922 6.68527344 19.91544922 5.7265625 21.55078125 C5.15679687 22.35902344 4.58703125 23.16726562 4 24 C3.34 24 2.68 24 2 24 C1.90702637 24.69673828 1.81405273 25.39347656 1.71826172 26.11132812 C0.84999432 29.60328595 -0.63648751 32.13594583 -2.4921875 35.21875 C-2.83879425 35.79911011 -3.185401 36.37947021 -3.54251099 36.97741699 C-4.64654982 38.82245417 -5.76055308 40.66123492 -6.875 42.5 C-7.61655425 43.73527582 -8.35744634 44.9709494 -9.09765625 46.20703125 C-11.05739531 49.47602875 -13.02823529 52.73824057 -15 56 C-16.00070404 57.66624404 -17.00096412 59.33275524 -18 61 C-18.99 60.67 -19.98 60.34 -21 60 C-19.7965286 53.88220423 -18.11756736 48.1865814 -15.875 42.375 C-12.63153232 33.79993562 -9.60253488 25.16275723 -6.66552734 16.47802734 C-6.34664551 15.54684082 -6.02776367 14.6156543 -5.69921875 13.65625 C-5.41908936 12.82931641 -5.13895996 12.00238281 -4.8503418 11.15039062 C-4 9 -4 9 -2 6 C-1.29835358 4.01200182 -0.62627128 2.01301483 0 0 Z " fill="#8CA4A8" transform="translate(79,42)"/>
<path d="M0 0 C2.31 0 4.62 0 7 0 C7.33 2.97 7.66 5.94 8 9 C8.33 8.01 8.66 7.02 9 6 C9.66 6 10.32 6 11 6 C11.66 4.02 12.32 2.04 13 0 C15.97 0 18.94 0 22 0 C19.48943719 5.11078857 16.84536624 10.06843037 14 15 C14.6496875 16.07121094 15.299375 17.14242187 15.96875 18.24609375 C16.81261525 19.64315956 17.656359 21.04029876 18.5 22.4375 C18.92925781 23.14455078 19.35851562 23.85160156 19.80078125 24.58007812 C23 29.88671875 23 29.88671875 23 31 C15.56664128 31.36557502 15.56664128 31.36557502 13.0625 29.75 C11.90210381 27.83875922 11.37879735 26.19702465 11 24 C10.34 24 9.68 24 9 24 C8.67 23.01 8.34 22.02 8 21 C7.67 24.3 7.34 27.6 7 31 C4.69 31 2.38 31 0 31 C0 20.77 0 10.54 0 0 Z " fill="#C3C2C2" transform="translate(6,153)"/>
<path d="M0 0 C2.31 0 4.62 0 7 0 C7.95198732 2.61796512 8.90335546 5.23613087 9.8515625 7.85546875 C10.58453878 9.86242761 11.32825891 11.86551719 12.0859375 13.86328125 C14.22101347 19.53808843 15.82927166 25.04879761 17 31 C14.36 31 11.72 31 9 31 C8.67 28.69 8.34 26.38 8 24 C5.03 24 2.06 24 -1 24 C-1.144375 24.78375 -1.28875 25.5675 -1.4375 26.375 C-2 29 -2 29 -3 31 C-5.31 31 -7.62 31 -10 31 C-9.55047603 25.83047439 -8.19353992 21.6818762 -6.1875 16.91015625 C-4.76940843 13.43489894 -3.50128763 9.91270698 -2.25 6.375 C-1.82203125 5.16585937 -1.3940625 3.95671875 -0.953125 2.7109375 C-0.63859375 1.81632813 -0.3240625 0.92171875 0 0 Z M3 12 C2.67 13.98 2.34 15.96 2 18 C3.32 17.67 4.64 17.34 6 17 C5.34 15.35 4.68 13.7 4 12 C3.67 12 3.34 12 3 12 Z " fill="#D3D3D3" transform="translate(120,153)"/>
<path d="M0 0 C5.94 0 11.88 0 18 0 C18 1.98 18 3.96 18 6 C14.04 6 10.08 6 6 6 C6 7.98 6 9.96 6 12 C9.63 12 13.26 12 17 12 C17 14.31 17 16.62 17 19 C13.37 19 9.74 19 6 19 C6 20.65 6 22.3 6 24 C9.96 24 13.92 24 18 24 C18 26.31 18 28.62 18 31 C12.06 31 6.12 31 0 31 C0 20.77 0 10.54 0 0 Z " fill="#DADAD9" transform="translate(168,153)"/>
<path d="M0 0 C2.31 0 4.62 0 7 0 C7 7.92 7 15.84 7 24 C10.3 24 13.6 24 17 24 C18 25 18 25 18 31 C12.06 31 6.12 31 0 31 C0 20.77 0 10.54 0 0 Z " fill="#D5D5D5" transform="translate(35,153)"/>
<path d="M0 0 C7.26 0 14.52 0 22 0 C22 1.98 22 3.96 22 6 C19.36 6 16.72 6 14 6 C14 14.25 14 22.5 14 31 C12.02 31 10.04 31 8 31 C8 22.75 8 14.5 8 6 C5.36 6 2.72 6 0 6 C0 4.02 0 2.04 0 0 Z " fill="#DDDDDD" transform="translate(139,153)"/>
<path d="M0 0 C1.98 0 3.96 0 6 0 C6 10.23 6 20.46 6 31 C4.02 31 2.04 31 0 31 C0 20.77 0 10.54 0 0 Z " fill="#D7D7D7" transform="translate(60,153)"/>
<path d="M0 0 C1.98 0 3.96 0 6 0 C6 9.9 6 19.8 6 30 C4.02 30 2.04 30 0 30 C0 20.1 0 10.2 0 0 Z " fill="#ECECEC" transform="translate(6,153)"/>
<path d="M0 0 C6.27011094 4.92651574 8.74253868 14.35405701 10 22 C10.01933594 22.81597656 10.03867188 23.63195312 10.05859375 24.47265625 C10.11360179 29.58269238 10.11360179 29.58269238 12.62890625 33.83984375 C14.02777655 34.96796496 15.44126041 36.07815314 16.8671875 37.171875 C24.47416943 43.69214523 27.46271877 53.93071202 28.31640625 63.57421875 C28.64112367 73.76615571 26.79268436 82.95434799 22 92 C21.34 92 20.68 92 20 92 C19.67 92.99 19.34 93.98 19 95 C18.505 94.01 18.505 94.01 18 93 C19.1796875 90.28515625 19.1796875 90.28515625 20.875 87.0625 C26.20700307 76.85729412 26.66570058 65.02391764 24.31640625 53.70703125 C23.39180007 51.29384749 22.34556651 49.20372967 21 47 C20.32904297 45.80697266 20.32904297 45.80697266 19.64453125 44.58984375 C17.23310181 40.6138944 15.32106344 37.99786756 11.1875 35.8125 C9.40234375 34.6875 9.40234375 34.6875 8 33 C7.36122049 29.49788015 7.24573775 26.1353385 7.16015625 22.578125 C6.8100449 14.75612502 3.98359941 8.59354385 0 2 C0 1.34 0 0.68 0 0 Z " fill="#0D6287" transform="translate(149,25)"/>
<path d="M0 0 C0 3.90838866 -1.50567876 5.11594107 -4 8 C-3.10075806 8.02187378 -3.10075806 8.02187378 -2.18334961 8.04418945 C0.56587455 8.11923821 3.31395889 8.21570752 6.0625 8.3125 C7.47692383 8.34633789 7.47692383 8.34633789 8.91992188 8.38085938 C14.66372859 8.60100528 18.88152706 9.3520244 24 12 C24 12.66 24 13.32 24 14 C24.5775 14.185625 25.155 14.37125 25.75 14.5625 C30.14499863 17.37041579 31.60553622 21.28503179 32.73046875 26.17578125 C33.61254347 31.40310998 34.34206031 35.80555074 33 41 C32.67 41 32.34 41 32 41 C31.95101562 40.11957031 31.90203125 39.23914063 31.8515625 38.33203125 C31.77679688 37.17058594 31.70203125 36.00914063 31.625 34.8125 C31.55539063 33.66394531 31.48578125 32.51539063 31.4140625 31.33203125 C31.02266428 28.18238334 30.22994664 25.89487441 29 23 C29 22.01 29 21.02 29 20 C28.34 20 27.68 20 27 20 C25.77975006 18.52285534 24.56246266 17.04148239 23.4140625 15.5078125 C21.00713774 12.94131261 18.73588007 12.08535163 15.25097656 11.68115234 C14.22456055 11.64973145 13.19814453 11.61831055 12.140625 11.5859375 C10.46806641 11.52792969 10.46806641 11.52792969 8.76171875 11.46875 C7.60285156 11.4378125 6.44398438 11.406875 5.25 11.375 C4.07566406 11.33632812 2.90132812 11.29765625 1.69140625 11.2578125 C-1.20557268 11.1636018 -4.10254626 11.07798398 -7 11 C-6.25867818 7.61637345 -5.27458847 5.83571491 -2.9375 3.25 C-2.38964844 2.63640625 -1.84179688 2.0228125 -1.27734375 1.390625 C-0.85582031 0.93171875 -0.43429688 0.4728125 0 0 Z " fill="#196485" transform="translate(133,58)"/>
<path d="M0 0 C0.33 0 0.66 0 1 0 C0.22602467 6.70778622 -0.85768588 13.34574301 -2 20 C0.64 20 3.28 20 6 20 C6 18.35 6 16.7 6 15 C6.66 15.33 7.32 15.66 8 16 C8.042721 17.66611905 8.04063832 19.33382885 8 21 C6.11692557 22.88307443 2.78608313 22.36503069 0.2265625 22.5234375 C-2.39073204 23.08363037 -3.3173393 23.96995128 -5 26 C-4.67 24.35 -4.34 22.7 -4 21 C-9.28 21.66 -14.56 22.32 -20 23 C-19.67 22.34 -19.34 21.68 -19 21 C-13.81100071 19.38962091 -9.41000193 18.77458325 -4 19 C-3.96261719 18.38253906 -3.92523438 17.76507813 -3.88671875 17.12890625 C-3.41276584 11.0232776 -2.19399627 5.71266953 0 0 Z " fill="#87867B" transform="translate(55,33)"/>
<path d="M0 0 C0.495 1.485 0.495 1.485 1 3 C1.66 3 2.32 3 3 3 C5 6 5 6 5 9 C-11.17 9 -27.34 9 -44 9 C-44 8.67 -44 8.34 -44 8 C-21.725 7.505 -21.725 7.505 1 7 C0.505 3.535 0.505 3.535 0 0 Z " fill="#7F8480" transform="translate(89,123)"/>
<path d="M0 0 C0.66 0 1.32 0 2 0 C6.04009691 7.66384796 9.13553548 14.1778723 9 23 C7.06263299 23.16820551 5.12510094 23.33451095 3.1875 23.5 C2.10855469 23.5928125 1.02960938 23.685625 -0.08203125 23.78125 C-3 24 -3 24 -6 24 C-4.0373772 21.95204577 -2.5722693 21.05023362 0.26953125 20.80078125 C2.51954383 20.81141123 4.75385562 20.87041475 7 21 C5.89986786 15.2922556 4.43578094 10.27752536 2 5 C1.32723284 3.3357865 0.65793165 1.67013418 0 0 Z " fill="#1A7397" transform="translate(140,33)"/>
<path d="M0 0 C1.32 0.33 2.64 0.66 4 1 C0.04 4.96 -3.92 8.92 -8 13 C-8.66 12.67 -9.32 12.34 -10 12 C-2.85714286 2.19047619 -2.85714286 2.19047619 0 0 Z " fill="#758A8F" transform="translate(68,15)"/>
<path d="M0 0 C0.79921875 0.00902344 1.5984375 0.01804687 2.421875 0.02734375 C3.02515625 0.03894531 3.6284375 0.05054687 4.25 0.0625 C4.58 0.7225 4.91 1.3825 5.25 2.0625 C4.095 2.000625 2.94 1.93875 1.75 1.875 C-2.99683267 1.86655368 -6.43168375 3.12670306 -10.75 5.0625 C-11.41 5.7225 -12.07 6.3825 -12.75 7.0625 C-15.375 6.6875 -15.375 6.6875 -17.75 6.0625 C-17.75 5.0725 -17.75 4.0825 -17.75 3.0625 C-17.193125 3.289375 -16.63625 3.51625 -16.0625 3.75 C-12.81590348 4.18872926 -11.44262057 2.81270337 -8.75 1.0625 C-5.7800513 0.10787363 -3.10840793 -0.04571188 0 0 Z " fill="#23566E" transform="translate(123.75,23.9375)"/>
<path d="M0 0 C0.33 0 0.66 0 1 0 C1 2.31 1 4.62 1 7 C1.66 6.67 2.32 6.34 3 6 C1.125 10.75 1.125 10.75 0 13 C-0.99 12.67 -1.98 12.34 -3 12 C-2.68950274 10.56206608 -2.3765224 9.1246682 -2.0625 7.6875 C-1.88847656 6.88699219 -1.71445312 6.08648437 -1.53515625 5.26171875 C-1 3 -1 3 0 0 Z " fill="#868271" transform="translate(61,90)"/>
<path d="M0 0 C0.33 0.99 0.66 1.98 1 3 C2.81178563 5.58583489 4.70239639 8.1027873 6.6015625 10.625 C7.29378906 11.800625 7.29378906 11.800625 8 13 C7.67 13.99 7.34 14.98 7 16 C4.03 12.04 1.06 8.08 -2 4 C-1.34 2.68 -0.68 1.36 0 0 Z " fill="#727E7F" transform="translate(77,85)"/>
<path d="M0 0 C5.61 0 11.22 0 17 0 C16.67 0.99 16.34 1.98 16 3 C15.67 2.34 15.34 1.68 15 1 C12.91589342 1.08733973 10.83265331 1.19552278 8.75 1.3125 C7.58984375 1.37050781 6.4296875 1.42851563 5.234375 1.48828125 C1.89180362 2.01711803 0.4502943 2.73772333 -2 5 C-2.66 4.67 -3.32 4.34 -4 4 C-3.01 3.67 -2.02 3.34 -1 3 C-0.67 2.01 -0.34 1.02 0 0 Z " fill="#4C8299" transform="translate(100,57)"/>
<path d="M0 0 C6.39346024 1.27869205 9.76918673 5.38261496 14 10 C10.06830895 10 8.83572772 8.60580385 6 6 C6 5.34 6 4.68 6 4 C5.38125 3.896875 4.7625 3.79375 4.125 3.6875 C2 3 2 3 0 0 Z " fill="#115576" transform="translate(135,13)"/>
<path d="M0 0 C0.66 0 1.32 0 2 0 C6.57142857 7.28571429 6.57142857 7.28571429 6 12 C3.73013832 9.73013832 3.11224124 7.98914832 2 5 C1.62875 4.071875 1.2575 3.14375 0.875 2.1875 C0.58625 1.465625 0.2975 0.74375 0 0 Z " fill="#126281" transform="translate(140,33)"/>
</svg>
